<svg width="4" height="21" viewBox="0 0 4 21" fill="none" xmlns="http://www.w3.org/2000/svg">
<path fill-rule="evenodd" clip-rule="evenodd" d="M4 2.397C4 3.49727 3.10457 4.38922 2 4.38922C0.895431 4.38922 0 3.49727 0 2.397C0 1.29673 0.895431 0.404785 2 0.404785C3.10457 0.404785 4 1.29673 4 2.397ZM4 10.3659C4 11.4661 3.10457 12.3581 2 12.3581C0.895431 12.3581 0 11.4661 0 10.3659C0 9.2656 0.895431 8.37366 2 8.37366C3.10457 8.37366 4 9.2656 4 10.3659ZM2 20.327C3.10457 20.327 4 19.435 4 18.3347C4 17.2345 3.10457 16.3425 2 16.3425C0.895431 16.3425 0 17.2345 0 18.3347C0 19.435 0.895431 20.327 2 20.327Z" fill="#98A9BC"/>
</svg>
