<svg width="108" height="108" viewBox="0 0 108 108" fill="none" xmlns="http://www.w3.org/2000/svg">
<rect width="108" height="108" rx="7" fill="#285073" fill-opacity="0.3"/>
<path fill-rule="evenodd" clip-rule="evenodd" d="M54.5908 42.0341C54.4637 42 54.3087 42 53.9987 42C53.6887 42 53.5337 42 53.4065 42.0341C53.0615 42.1265 52.7919 42.3961 52.6994 42.7412C52.6654 42.8683 52.6654 43.0233 52.6654 43.3333V52.667H43.3333C43.0233 52.667 42.8683 52.667 42.7412 52.7011C42.3961 52.7935 42.1265 53.0631 42.0341 53.4082C42 53.5353 42 53.6903 42 54.0003C42 54.3103 42 54.4653 42.0341 54.5925C42.1265 54.9376 42.3961 55.2071 42.7412 55.2996C42.8683 55.3337 43.0233 55.3337 43.3333 55.3337H52.6654V64.6667C52.6654 64.9767 52.6654 65.1317 52.6994 65.2588C52.7919 65.6039 53.0615 65.8735 53.4065 65.9659C53.5337 66 53.6887 66 53.9987 66C54.3087 66 54.4637 66 54.5908 65.9659C54.9359 65.8735 55.2055 65.6039 55.298 65.2588C55.332 65.1317 55.332 64.9767 55.332 64.6667V55.3337H64.6667C64.9767 55.3337 65.1317 55.3337 65.2588 55.2996C65.6039 55.2071 65.8735 54.9376 65.9659 54.5925C66 54.4653 66 54.3103 66 54.0003C66 53.6903 66 53.5353 65.9659 53.4082C65.8735 53.0631 65.6039 52.7935 65.2588 52.7011C65.1317 52.667 64.9767 52.667 64.6667 52.667H55.332V43.3333C55.332 43.0233 55.332 42.8683 55.298 42.7412C55.2055 42.3961 54.9359 42.1265 54.5908 42.0341Z" fill="#285073"/>
</svg>
