<svg width="63" height="19" viewBox="0 0 63 19" fill="none" xmlns="http://www.w3.org/2000/svg">
<path d="M22.718 4.13H26.036C27.6133 4.13 28.8313 4.55933 29.69 5.418C30.558 6.26733 30.992 7.48067 30.992 9.058C30.992 10.6353 30.558 11.8533 29.69 12.712C28.8313 13.5707 27.6133 14 26.036 14H22.718V4.13ZM25.966 13.02C28.5233 13.02 29.802 11.6993 29.802 9.058C29.802 6.426 28.5233 5.11 25.966 5.11H23.866V13.02H25.966ZM38.6116 10.766H33.6276C33.6649 11.5593 33.8796 12.1613 34.2716 12.572C34.6636 12.9733 35.2189 13.174 35.9376 13.174C36.7309 13.174 37.4589 12.9033 38.1216 12.362L38.4996 13.188C38.2009 13.468 37.8183 13.692 37.3516 13.86C36.8849 14.0187 36.4089 14.098 35.9236 14.098C34.8596 14.098 34.0196 13.7853 33.4036 13.16C32.7969 12.5347 32.4936 11.6713 32.4936 10.57C32.4936 9.87 32.6289 9.254 32.8996 8.722C33.1703 8.18067 33.5483 7.76067 34.0336 7.462C34.5283 7.16333 35.0883 7.014 35.7136 7.014C36.6189 7.014 37.3283 7.31267 37.8416 7.91C38.3549 8.498 38.6116 9.31 38.6116 10.346V10.766ZM35.7276 7.896C35.1303 7.896 34.6496 8.08267 34.2856 8.456C33.9309 8.82933 33.7209 9.35667 33.6556 10.038H37.6176C37.5989 9.34733 37.4263 8.82 37.0996 8.456C36.7729 8.08267 36.3156 7.896 35.7276 7.896ZM40.2824 14V4.13H41.4164V14H40.2824ZM49.2483 10.766H44.2643C44.3017 11.5593 44.5163 12.1613 44.9083 12.572C45.3003 12.9733 45.8557 13.174 46.5743 13.174C47.3677 13.174 48.0957 12.9033 48.7583 12.362L49.1363 13.188C48.8377 13.468 48.455 13.692 47.9883 13.86C47.5217 14.0187 47.0457 14.098 46.5603 14.098C45.4963 14.098 44.6563 13.7853 44.0403 13.16C43.4337 12.5347 43.1303 11.6713 43.1303 10.57C43.1303 9.87 43.2657 9.254 43.5363 8.722C43.807 8.18067 44.185 7.76067 44.6703 7.462C45.165 7.16333 45.725 7.014 46.3503 7.014C47.2557 7.014 47.965 7.31267 48.4783 7.91C48.9917 8.498 49.2483 9.31 49.2483 10.346V10.766ZM46.3643 7.896C45.767 7.896 45.2863 8.08267 44.9223 8.456C44.5677 8.82933 44.3577 9.35667 44.2923 10.038H48.2543C48.2357 9.34733 48.063 8.82 47.7363 8.456C47.4097 8.08267 46.9523 7.896 46.3643 7.896ZM53.8741 13.188C54.0795 13.188 54.2848 13.174 54.4901 13.146L54.4341 14.042C54.2195 14.0793 53.9861 14.098 53.7341 14.098C52.9128 14.098 52.2921 13.8833 51.8721 13.454C51.4615 13.0247 51.2561 12.4273 51.2561 11.662V8.078H49.9261V7.182H51.2561V5.11H52.3901V7.182H54.3221V8.078H52.3901V11.578C52.3901 12.6513 52.8848 13.188 53.8741 13.188ZM61.3479 10.766H56.3639C56.4013 11.5593 56.6159 12.1613 57.0079 12.572C57.3999 12.9733 57.9553 13.174 58.6739 13.174C59.4673 13.174 60.1953 12.9033 60.8579 12.362L61.2359 13.188C60.9373 13.468 60.5546 13.692 60.0879 13.86C59.6213 14.0187 59.1453 14.098 58.6599 14.098C57.5959 14.098 56.7559 13.7853 56.1399 13.16C55.5333 12.5347 55.2299 11.6713 55.2299 10.57C55.2299 9.87 55.3653 9.254 55.6359 8.722C55.9066 8.18067 56.2846 7.76067 56.7699 7.462C57.2646 7.16333 57.8246 7.014 58.4499 7.014C59.3553 7.014 60.0646 7.31267 60.5779 7.91C61.0913 8.498 61.3479 9.31 61.3479 10.346V10.766ZM58.4639 7.896C57.8666 7.896 57.3859 8.08267 57.0219 8.456C56.6673 8.82933 56.4573 9.35667 56.3919 10.038H60.3539C60.3353 9.34733 60.1626 8.82 59.8359 8.456C59.5093 8.08267 59.0519 7.896 58.4639 7.896Z" fill="#98A9BC"/>
<path fill-rule="evenodd" clip-rule="evenodd" d="M10.2102 15.3789C10.1945 15.5258 10.1543 15.6163 10.1204 15.6678H3.12917C3.09588 15.6169 3.05568 15.5271 3.03935 15.3789C2.99978 15.0032 2.65493 7.13452 2.52679 4.16592H10.6738C10.5814 6.57296 10.2523 14.9875 10.2102 15.3789ZM4.88839 2.47014C4.88839 2.26788 5.09254 2.10268 5.34379 2.10268H7.90158C8.1541 2.10268 8.35824 2.26788 8.35824 2.47014V2.83886H4.88839V2.47014ZM9.71545 2.83354V2.58229C9.71545 1.7098 9.00942 1 8.14133 1H5.10804C4.23995 1 3.53392 1.7098 3.53392 2.58229V2.83354H0.5V4.1652H1.19849L1.72111 15.7965C1.73116 15.8455 1.97864 17 2.98367 17H10.2644C11.2977 17 11.532 15.772 11.5352 15.7387C11.7946 12.8543 12.0264 4.1652 12.0264 4.1652H12.7487V2.83354H9.71545ZM9.45009 4.9881H8.24846L7.9256 14.9027H9.12786L9.45009 4.9881ZM6.02381 14.9027H7.22544V4.9881H6.02381V14.9027ZM4.12072 14.9034H5.3236L5.00451 5.07866L5.00137 4.98884H3.79911L4.11757 14.813L4.12072 14.9034Z" fill="#404C59" style="mix-blend-mode:color-burn"/>
<path fill-rule="evenodd" clip-rule="evenodd" d="M10.2102 15.3789C10.1945 15.5258 10.1543 15.6163 10.1204 15.6678H3.12917C3.09588 15.6169 3.05568 15.5271 3.03935 15.3789C2.99978 15.0032 2.65493 7.13452 2.52679 4.16592H10.6738C10.5814 6.57296 10.2523 14.9875 10.2102 15.3789ZM4.88839 2.47014C4.88839 2.26788 5.09254 2.10268 5.34379 2.10268H7.90158C8.1541 2.10268 8.35824 2.26788 8.35824 2.47014V2.83886H4.88839V2.47014ZM9.71545 2.83354V2.58229C9.71545 1.7098 9.00942 1 8.14133 1H5.10804C4.23995 1 3.53392 1.7098 3.53392 2.58229V2.83354H0.5V4.1652H1.19849L1.72111 15.7965C1.73116 15.8455 1.97864 17 2.98367 17H10.2644C11.2977 17 11.532 15.772 11.5352 15.7387C11.7946 12.8543 12.0264 4.1652 12.0264 4.1652H12.7487V2.83354H9.71545ZM9.45009 4.9881H8.24846L7.9256 14.9027H9.12786L9.45009 4.9881ZM6.02381 14.9027H7.22544V4.9881H6.02381V14.9027ZM4.12072 14.9034H5.3236L5.00451 5.07866L5.00137 4.98884H3.79911L4.11757 14.813L4.12072 14.9034Z" fill="#98A9BC"/>
</svg>
