<svg width="46" height="19" viewBox="0 0 46 19" fill="none" xmlns="http://www.w3.org/2000/svg">
<path fill-rule="evenodd" clip-rule="evenodd" d="M15.3853 1.6685C15.6447 1.92317 15.6453 2.3425 15.3873 2.59917L15.3847 2.60183C15.1273 2.85983 14.9227 3.06983 14.9227 3.06983L13.5 1.66183C13.5 1.66183 13.7053 1.45184 13.962 1.19517L13.9633 1.19384C14.2213 0.936503 14.644 0.93517 14.9027 1.19117L15.3853 1.6685ZM6.1495 9.39869L5.63683 11.3074L7.5715 10.8054L14.8655 3.5367L13.4441 2.12871L6.1495 9.39869ZM12.7026 7.87893V15.0049C12.7026 15.3722 12.4033 15.6702 12.0346 15.6702H2.006C1.63666 15.6702 1.33733 15.3722 1.33733 15.0049V5.03027C1.33733 4.66361 1.63666 4.36494 2.006 4.36494H8.98065L10.328 3.03494H2.006C0.899998 3.03494 0 3.92961 0 5.03027V15.0049C0 16.1056 0.899998 17.0002 2.006 17.0002H12.0346C13.14 17.0002 14.04 16.1056 14.04 15.0049V6.55894L12.7026 7.87893Z" fill="#404C59" style="mix-blend-mode:color-burn"/>
<path fill-rule="evenodd" clip-rule="evenodd" d="M15.3853 1.6685C15.6447 1.92317 15.6453 2.3425 15.3873 2.59917L15.3847 2.60183C15.1273 2.85983 14.9227 3.06983 14.9227 3.06983L13.5 1.66183C13.5 1.66183 13.7053 1.45184 13.962 1.19517L13.9633 1.19384C14.2213 0.936503 14.644 0.93517 14.9027 1.19117L15.3853 1.6685ZM6.1495 9.39869L5.63683 11.3074L7.5715 10.8054L14.8655 3.5367L13.4441 2.12871L6.1495 9.39869ZM12.7026 7.87893V15.0049C12.7026 15.3722 12.4033 15.6702 12.0346 15.6702H2.006C1.63666 15.6702 1.33733 15.3722 1.33733 15.0049V5.03027C1.33733 4.66361 1.63666 4.36494 2.006 4.36494H8.98065L10.328 3.03494H2.006C0.899998 3.03494 0 3.92961 0 5.03027V15.0049C0 16.1056 0.899998 17.0002 2.006 17.0002H12.0346C13.14 17.0002 14.04 16.1056 14.04 15.0049V6.55894L12.7026 7.87893Z" fill="#98A9BC"/>
<path d="M21.718 14V4.13H27.962V5.082H22.852V8.512H27.682V9.464H22.852V13.048H27.962V14H21.718ZM35.7464 4.13V14H34.6124V12.754C34.4071 13.1833 34.1038 13.5147 33.7024 13.748C33.3104 13.9813 32.8484 14.098 32.3164 14.098C31.7191 14.098 31.1918 13.9487 30.7344 13.65C30.2771 13.3513 29.9224 12.936 29.6704 12.404C29.4184 11.8627 29.2924 11.2373 29.2924 10.528C29.2924 9.828 29.4184 9.212 29.6704 8.68C29.9224 8.148 30.2771 7.73733 30.7344 7.448C31.1918 7.15867 31.7191 7.014 32.3164 7.014C32.8484 7.014 33.3104 7.13067 33.7024 7.364C34.1038 7.59733 34.4071 7.92867 34.6124 8.358V4.13H35.7464ZM32.5404 13.16C33.2031 13.16 33.7118 12.936 34.0664 12.488C34.4304 12.0307 34.6124 11.3867 34.6124 10.556C34.6124 9.72533 34.4304 9.086 34.0664 8.638C33.7118 8.19 33.2031 7.966 32.5404 7.966C31.8778 7.966 31.3598 8.19 30.9864 8.638C30.6224 9.086 30.4404 9.716 30.4404 10.528C30.4404 11.3587 30.6224 12.0073 30.9864 12.474C31.3598 12.9313 31.8778 13.16 32.5404 13.16ZM37.8469 14V7.182H38.9809V14H37.8469ZM37.7349 4.228H39.1069V5.502H37.7349V4.228ZM44.0968 13.188C44.3021 13.188 44.5074 13.174 44.7128 13.146L44.6568 14.042C44.4421 14.0793 44.2088 14.098 43.9568 14.098C43.1354 14.098 42.5148 13.8833 42.0948 13.454C41.6841 13.0247 41.4788 12.4273 41.4788 11.662V8.078H40.1488V7.182H41.4788V5.11H42.6128V7.182H44.5448V8.078H42.6128V11.578C42.6128 12.6513 43.1074 13.188 44.0968 13.188Z" fill="#98A9BC"/>
</svg>
