<svg width="16" height="16" viewBox="0 0 16 16" fill="none" xmlns="http://www.w3.org/2000/svg">
<path fill-rule="evenodd" clip-rule="evenodd" d="M15.3853 0.668501C15.6447 0.923167 15.6453 1.3425 15.3873 1.59917L15.3847 1.60183C15.1273 1.85983 14.9227 2.06983 14.9227 2.06983L13.5 0.661835C13.5 0.661835 13.7053 0.451835 13.962 0.195169L13.9633 0.193836C14.2213 -0.0634969 14.644 -0.0648303 14.9027 0.191169L15.3853 0.668501ZM6.1495 8.39869L5.63683 10.3074L7.5715 9.80535L14.8655 2.5367L13.4441 1.12871L6.1495 8.39869ZM12.7026 6.87893V14.0049C12.7026 14.3722 12.4033 14.6702 12.0346 14.6702H2.006C1.63666 14.6702 1.33733 14.3722 1.33733 14.0049V4.03027C1.33733 3.66361 1.63666 3.36494 2.006 3.36494H8.98065L10.328 2.03494H2.006C0.899998 2.03494 0 2.92961 0 4.03027V14.0049C0 15.1056 0.899998 16.0002 2.006 16.0002H12.0346C13.14 16.0002 14.04 15.1056 14.04 14.0049V5.55894L12.7026 6.87893Z" fill="#404C59" style="mix-blend-mode:color-burn"/>
<path fill-rule="evenodd" clip-rule="evenodd" d="M15.3853 0.668501C15.6447 0.923167 15.6453 1.3425 15.3873 1.59917L15.3847 1.60183C15.1273 1.85983 14.9227 2.06983 14.9227 2.06983L13.5 0.661835C13.5 0.661835 13.7053 0.451835 13.962 0.195169L13.9633 0.193836C14.2213 -0.0634969 14.644 -0.0648303 14.9027 0.191169L15.3853 0.668501ZM6.1495 8.39869L5.63683 10.3074L7.5715 9.80535L14.8655 2.5367L13.4441 1.12871L6.1495 8.39869ZM12.7026 6.87893V14.0049C12.7026 14.3722 12.4033 14.6702 12.0346 14.6702H2.006C1.63666 14.6702 1.33733 14.3722 1.33733 14.0049V4.03027C1.33733 3.66361 1.63666 3.36494 2.006 3.36494H8.98065L10.328 2.03494H2.006C0.899998 2.03494 0 2.92961 0 4.03027V14.0049C0 15.1056 0.899998 16.0002 2.006 16.0002H12.0346C13.14 16.0002 14.04 15.1056 14.04 14.0049V5.55894L12.7026 6.87893Z" fill="#98A9BC"/>
</svg>
