<svg width="13" height="16" viewBox="0 0 13 16" fill="none" xmlns="http://www.w3.org/2000/svg">
<path fill-rule="evenodd" clip-rule="evenodd" d="M10.2102 14.3789C10.1945 14.5258 10.1543 14.6163 10.1204 14.6678H3.12917C3.09588 14.6169 3.05568 14.5271 3.03935 14.3789C2.99978 14.0032 2.65493 6.13452 2.52679 3.16592H10.6738C10.5814 5.57296 10.2523 13.9875 10.2102 14.3789ZM4.88839 1.47014C4.88839 1.26788 5.09254 1.10268 5.34379 1.10268H7.90158C8.1541 1.10268 8.35824 1.26788 8.35824 1.47014V1.83886H4.88839V1.47014ZM9.71545 1.83354V1.58229C9.71545 0.709799 9.00942 0 8.14133 0H5.10804C4.23995 0 3.53392 0.709799 3.53392 1.58229V1.83354H0.5V3.1652H1.19849L1.72111 14.7965C1.73116 14.8455 1.97864 16 2.98367 16H10.2644C11.2977 16 11.532 14.772 11.5352 14.7387C11.7946 11.8543 12.0264 3.1652 12.0264 3.1652H12.7487V1.83354H9.71545ZM9.45009 3.9881H8.24846L7.9256 13.9027H9.12786L9.45009 3.9881ZM6.02381 13.9027H7.22544V3.9881H6.02381V13.9027ZM4.12072 13.9034H5.3236L5.00451 4.07866L5.00137 3.98884H3.79911L4.11757 13.813L4.12072 13.9034Z" fill="#404C59" style="mix-blend-mode:color-burn"/>
<path fill-rule="evenodd" clip-rule="evenodd" d="M10.2102 14.3789C10.1945 14.5258 10.1543 14.6163 10.1204 14.6678H3.12917C3.09588 14.6169 3.05568 14.5271 3.03935 14.3789C2.99978 14.0032 2.65493 6.13452 2.52679 3.16592H10.6738C10.5814 5.57296 10.2523 13.9875 10.2102 14.3789ZM4.88839 1.47014C4.88839 1.26788 5.09254 1.10268 5.34379 1.10268H7.90158C8.1541 1.10268 8.35824 1.26788 8.35824 1.47014V1.83886H4.88839V1.47014ZM9.71545 1.83354V1.58229C9.71545 0.709799 9.00942 0 8.14133 0H5.10804C4.23995 0 3.53392 0.709799 3.53392 1.58229V1.83354H0.5V3.1652H1.19849L1.72111 14.7965C1.73116 14.8455 1.97864 16 2.98367 16H10.2644C11.2977 16 11.532 14.772 11.5352 14.7387C11.7946 11.8543 12.0264 3.1652 12.0264 3.1652H12.7487V1.83354H9.71545ZM9.45009 3.9881H8.24846L7.9256 13.9027H9.12786L9.45009 3.9881ZM6.02381 13.9027H7.22544V3.9881H6.02381V13.9027ZM4.12072 13.9034H5.3236L5.00451 4.07866L5.00137 3.98884H3.79911L4.11757 13.813L4.12072 13.9034Z" fill="#98A9BC"/>
</svg>
