<svg width="18" height="11" viewBox="0 0 18 11" fill="none" xmlns="http://www.w3.org/2000/svg">
<path d="M8.55556 0C4.88889 0 1.83333 2.44444 0 5.5C1.83333 8.55556 4.88889 11 8.55556 11C12.2222 11 15.2778 8.55556 17.1111 5.5C15.2778 2.44444 12.2222 0 8.55556 0ZM8.55556 9.47222C6.36167 9.47222 4.58333 7.69389 4.58333 5.5C4.58333 3.30611 6.36167 1.52778 8.55556 1.52778C10.7494 1.52778 12.5278 3.30611 12.5278 5.5C12.5278 7.69389 10.7494 9.47222 8.55556 9.47222Z" fill="#C6C6C6"/>
<path d="M8.55556 3.05556C8.18278 3.05556 7.83322 3.14539 7.51667 3.29511C7.87172 3.42161 8.12778 3.75711 8.12778 4.15556C8.12778 4.66217 7.71772 5.07222 7.21111 5.07222C6.81267 5.07222 6.47717 4.81678 6.35067 4.46111C6.20094 4.77767 6.11111 5.12722 6.11111 5.5C6.11111 6.84994 7.20561 7.94444 8.55556 7.94444C9.9055 7.94444 11 6.84994 11 5.5C11 4.15006 9.9055 3.05556 8.55556 3.05556Z" fill="#C6C6C6"/>
<rect x="12.0713" y="1" width="2" height="10" transform="rotate(45 12.0713 1)" fill="#C6C6C6"/>
</svg>
